# File generated by ImageToStl.com - Free Image and 3D model conversion tools

o obj1
v 1.40647995 -1.20181704 -0.75
v -0.003059 -0.68878597 -0.75
v -0.003059 -0.68878597 0.75
v 1.40305901 -1.21121395 -0.75
v -0.00648 -0.698183 -0.75
v -0.00648 -0.698183 0.75
v 1.40647995 -1.20181704 0.75
v 1.40305901 -1.21121395 0.75
v -0.005 0.75 -0.75
v -0.005 -0.75 -0.75
v -0.005 -0.75 0.75
v 0.005 0.75 -0.75
v 0.005 -0.75 -0.75
v 0.005 -0.75 0.75
v -0.005 0.75 0.75
v 0.005 0.75 0.75
v -0.003059 0.68878597 -0.75
v 1.40647995 1.20181704 -0.75
v 1.40647995 1.20181704 0.75
v -0.00648 0.698183 -0.75
v 1.40305901 1.21121395 -0.75
v 1.40305901 1.21121395 0.75
v -0.003059 0.68878597 0.75
v -0.00648 0.698183 0.75
vn 0.34202 0.93969 0
vn 0 0 -1
vn -0.93967 0.34209 0
vn 0 0 1
vn 0.93967 -0.34209 0
vn -0.34202 -0.93969 0
vn -1 0 0
vn 0 -1 0
vn -0 1 0
vn 1 0 0
vn 0.34202 -0.93969 0
vn 0.93967 0.34209 0
vn -0.93967 -0.34209 0
vn -0.34202 0.93969 0
f 1//1 2//1 3//1
f 2//2 1//2 4//2
f 5//2 2//2 4//2
f 2//3 5//3 6//3
f 3//3 2//3 6//3
f 3//4 6//4 7//4
f 6//4 8//4 7//4
f 3//1 7//1 1//1
f 7//5 8//5 4//5
f 1//5 7//5 4//5
f 8//6 6//6 5//6
f 4//6 8//6 5//6
f 9//7 10//7 11//7
f 10//2 9//2 12//2
f 13//2 10//2 12//2
f 10//8 13//8 14//8
f 11//8 10//8 14//8
f 11//4 14//4 15//4
f 14//4 16//4 15//4
f 11//7 15//7 9//7
f 15//9 16//9 12//9
f 9//9 15//9 12//9
f 16//10 14//10 13//10
f 12//10 16//10 13//10
f 17//11 18//11 19//11
f 18//2 17//2 20//2
f 21//2 18//2 20//2
f 18//12 21//12 22//12
f 19//12 18//12 22//12
f 19//4 22//4 23//4
f 22//4 24//4 23//4
f 19//11 23//11 17//11
f 23//13 24//13 20//13
f 17//13 23//13 20//13
f 24//14 22//14 21//14
f 20//14 24//14 21//14
# Vertices: 24, normals: 14, texture coordinates: 0, faces: 36

