# Blender 4.1.0
# www.blender.org
mtllib my_table.mtl
o Cube
v 0.800000 -1.300000 0.030000
v 0.800000 -1.300000 -0.030000
v -0.800000 -1.300000 0.030000
v -0.800000 -1.300000 -0.030000
v 0.800000 1.300000 0.030000
v 0.800000 1.300000 -0.030000
v -0.800000 1.300000 0.030000
v -0.800000 1.300000 -0.030000
vn -0.0000 -0.0000 1.0000
vn -1.0000 -0.0000 -0.0000
vn -0.0000 1.0000 -0.0000
vn -0.0000 -0.0000 -1.0000
vn -0.0000 -1.0000 -0.0000
vn 1.0000 -0.0000 -0.0000
vt 0.388889 0.750000
vt 0.166667 0.000000
vt 0.388889 0.000000
vt 0.625000 0.750000
vt 0.375000 1.000000
vt 0.375000 0.750000
vt 0.625000 0.000000
vt 0.375000 0.250000
vt 0.375000 0.000000
vt 0.375000 0.500000
vt 0.125000 0.750000
vt 0.125000 0.500000
vt 0.388889 0.750000
vt 0.611111 0.000000
vt 0.611111 0.750000
vt 0.833333 0.000000
vt 0.833333 0.750000
vt 0.166667 0.750000
vt 0.625000 1.000000
vt 0.625000 0.250000
vt 0.388889 0.000000
vt 0.611111 0.000000
s 0
usemtl Material
f 5/1/1 3/2/1 1/3/1
f 3/4/2 8/5/2 4/6/2
f 7/7/3 6/8/3 8/9/3
f 2/10/4 8/11/4 6/12/4
f 1/13/5 4/14/5 2/15/5
f 5/15/6 2/16/6 6/17/6
f 5/1/1 7/18/1 3/2/1
f 3/4/2 7/19/2 8/5/2
f 7/7/3 5/20/3 6/8/3
f 2/10/4 4/6/4 8/11/4
f 1/13/5 3/21/5 4/14/5
f 5/15/6 1/22/6 2/16/6
