# https://github.com/mikedh/trimesh
v -0.65000000 0.40000000 0.01500000
v -0.65000000 0.40000000 -0.01500000
v 0.65000000 0.40000000 0.01500000
v 0.65000000 0.40000000 -0.01500000
v -0.65000000 -0.40000000 0.01500000
v -0.65000000 -0.40000000 -0.01500000
v 0.65000000 -0.40000000 0.01500000
v 0.65000000 -0.40000000 -0.01500000
v -0.65000000 0.40000000 0.00000000
v 0.00000000 0.40000000 0.01500000
v 0.00000000 0.40000000 0.00000000
v 0.00000000 0.40000000 -0.01500000
v 0.65000000 0.40000000 0.00000000
v -0.65000000 0.00000000 0.01500000
v -0.65000000 0.00000000 0.00000000
v -0.65000000 0.00000000 -0.01500000
v 0.00000000 0.00000000 -0.01500000
v -0.65000000 -0.40000000 0.00000000
v 0.00000000 0.00000000 0.01500000
v 0.65000000 0.00000000 0.01500000
v 0.65000000 0.00000000 0.00000000
v 0.00000000 -0.40000000 0.01500000
v 0.65000000 0.00000000 -0.01500000
v 0.00000000 -0.40000000 0.00000000
v 0.00000000 -0.40000000 -0.01500000
v 0.65000000 -0.40000000 0.00000000
f 1 14 19
f 14 5 22
f 19 22 7
f 14 22 19
f 4 13 21
f 13 3 20
f 21 20 7
f 13 20 21
f 8 26 24
f 26 7 22
f 24 22 5
f 26 22 24
f 6 16 17
f 16 2 12
f 17 12 4
f 16 12 17
f 2 9 11
f 9 1 10
f 11 10 3
f 9 10 11
f 6 18 15
f 18 5 14
f 15 14 1
f 18 14 15
f 7 20 19
f 20 3 10
f 19 10 1
f 20 10 19
f 7 26 21
f 26 8 23
f 21 23 4
f 26 23 21
f 5 18 24
f 18 6 25
f 24 25 8
f 18 25 24
f 4 23 17
f 23 8 25
f 17 25 6
f 23 25 17
f 3 13 11
f 13 4 12
f 11 12 2
f 13 12 11
f 1 9 15
f 9 2 16
f 15 16 6
f 9 16 15