# Created by Open3D 
# object name: cube_multicolor_5cm
# number of vertices: 24
# number of triangles: 12
v -0.025 -0.025 -0.025
vn -0.5 -0.5 -0.5
v 0.025 0.025 -0.025
vn -0.5 -0.5 -0.5
v 0.025 -0.025 -0.025
vn -0.5 -0.5 -0.5
v -0.025 0.025 -0.025
vn -0.5 -0.5 -0.5
v -0.025 -0.025 -0.025
vn -0.5 -0.5 -0.5
v -0.025 0.025 0.025
vn -0.5 -0.5 -0.5
v -0.025 0.025 -0.025
vn -0.5 -0.5 -0.5
v -0.025 -0.025 0.025
vn -0.5 -0.5 -0.5
v -0.025 0.025 -0.025
vn -0.5 0.5 -0.5
v 0.025 0.025 0.025
vn -0.5 0.5 -0.5
v 0.025 0.025 -0.025
vn -0.5 0.5 -0.5
v -0.025 0.025 0.025
vn -0.5 0.5 -0.5
v 0.025 -0.025 -0.025
vn 0.5 -0.5 -0.5
v 0.025 0.025 -0.025
vn 0.5 -0.5 -0.5
v 0.025 0.025 0.025
vn 0.5 -0.5 -0.5
v 0.025 -0.025 0.025
vn 0.5 -0.5 -0.5
v -0.025 -0.025 -0.025
vn -0.5 -0.5 -0.5
v 0.025 -0.025 -0.025
vn -0.5 -0.5 -0.5
v 0.025 -0.025 0.025
vn -0.5 -0.5 -0.5
v -0.025 -0.025 0.025
vn -0.5 -0.5 -0.5
v -0.025 -0.025 0.025
vn -0.5 -0.5 0.5
v 0.025 -0.025 0.025
vn -0.5 -0.5 0.5
v 0.025 0.025 0.025
vn -0.5 -0.5 0.5
v -0.025 0.025 0.025
vn -0.5 -0.5 0.5
f 9//9 10//10 11//11
f 9//9 12//12 10//10
f 17//17 18//18 19//19
f 17//17 19//19 20//20
f 5//5 6//6 7//7
f 5//5 8//8 6//6
f 1//1 2//2 3//3
f 1//1 4//4 2//2
f 21//21 22//22 23//23
f 21//21 23//23 24//24
f 13//13 14//14 15//15
f 13//13 15//15 16//16
