# OBJ generated by ONSHAPE BY PTC INC, 1.192 Units = meters
mtllib contact_gen.mtl
g Part 1
v 0.025 0.025 0.025 
v 0.025 0.025 -0.025 
v -0.025 0.025 -0.025 
v -0.025 0.025 0.025 
v -0.025 -0.025 -0.025 
v -0.025 -0.025 0.025 
v 0.025 -0.025 -0.025 
v 0.025 -0.025 0.025 
v 0.025 0.0075 0.0175 
v 0.025 0.0075 0.0025 
v 0.025 -0.0075 0.0175 
v 0.025 -0.0075 0.0025 
v 0.05 -0.0075 0.0025 
v 0.05 0.0075 0.0025 
v 0.05 0.0075 0.0175 
v 0.05 -0.0075 0.0175 
vn 0 1 0 
vn -1 -1.38778e-16 0 
vn 0 -1 0 
vn 0 0 1 
vn 0 0 -1 
vn 1 1.38778e-16 0 
vn 0 1 1.73472e-16 
vn 0 0 1 
vn 0 -1 -1.73472e-16 
vn 1 0 0 
usemtl 0.615686_0.811765_0.929412_0.000000_0.000000
o mesh0
f 1//1 2//1 3//1 
f 3//1 4//1 1//1 
o mesh1
f 4//2 3//2 5//2 
f 5//2 6//2 4//2 
o mesh2
f 6//3 5//3 7//3 
f 7//3 8//3 6//3 
o mesh3
f 6//4 8//4 1//4 
f 1//4 4//4 6//4 
o mesh4
f 3//5 2//5 7//5 
f 7//5 5//5 3//5 
o mesh5
f 1//6 9//6 10//6 
f 1//6 8//6 11//6 
f 11//6 9//6 1//6 
f 8//6 7//6 12//6 
f 12//6 11//6 8//6 
f 7//6 2//6 10//6 
f 10//6 12//6 7//6 
f 10//6 2//6 1//6 
o mesh6
f 13//5 12//5 10//5 
f 10//5 14//5 13//5 
o mesh7
f 14//7 10//7 9//7 
f 9//7 15//7 14//7 
o mesh8
f 15//8 9//8 11//8 
f 11//8 16//8 15//8 
o mesh9
f 16//9 11//9 12//9 
f 12//9 13//9 16//9 
o mesh10
f 16//10 13//10 14//10 
f 14//10 15//10 16//10 
