# Created by Open3D 
# object name: fmb_peg_mid_split
# number of vertices: 512
# number of triangles: 508
v 0.024055 0.010193 -0.05 0.7 0.7 0.7
vn 0.00117831 0.999999 0
v 0.024055 0.010193 0.05 0.7 0.7 0.7
vn 0.000351536 1 0
v 0.02431 0.010179 0.05 0.7 0.7 0.7
vn 0.0887658 0.996053 0
v 0.02431 0.010179 -0.05 0.7 0.7 0.7
vn 0.122609 0.992455 0
v 0.024563 0.010139 0.05 0.7 0.7 0.7
vn 0.190124 0.98176 0
v 0.024563 0.010139 -0.05 0.7 0.7 0.7
vn 0.223813 0.974632 0
v 0.024811 0.010073 0.05 0.7 0.7 0.7
vn 0.291512 0.956567 0
v 0.024811 0.010073 -0.05 0.7 0.7 0.7
vn 0.325592 0.94551 0
v 0.02505 0.009981 0.05 0.7 0.7 0.7
vn 0.391097 0.920349 0
v 0.02505 0.009981 -0.05 0.7 0.7 0.7
vn 0.42253 0.906349 0
v 0.025278 0.00986499 0.05 0.7 0.7 0.7
vn 0.484859 0.874592 0
v 0.025278 0.00986499 -0.05 0.7 0.7 0.7
vn 0.51564 0.856806 0
v 0.025493 0.009725 0.05 0.7 0.7 0.7
vn 0.574074 0.818803 0
v 0.025493 0.009725 -0.05 0.7 0.7 0.7
vn 0.601874 0.798591 0
v 0.025692 0.009564 0.05 0.7 0.7 0.7
vn 0.655815 0.754921 0
v 0.025692 0.009564 -0.05 0.7 0.7 0.7
vn 0.681882 0.731462 0
v 0.025873 0.009383 0.05 0.7 0.7 0.7
vn 0.731434 0.681913 0
v 0.025873 0.009383 -0.05 0.7 0.7 0.7
vn 0.75492 0.655817 0
v 0.026034 0.009184 0.05 0.7 0.7 0.7
vn 0.798759 0.601651 0
v 0.026034 0.009184 -0.05 0.7 0.7 0.7
vn 0.819176 0.573542 0
v 0.026173 0.00897 0.05 0.7 0.7 0.7
vn 0.857613 0.514296 0
v 0.026173 0.00897 -0.05 0.7 0.7 0.7
vn 0.875455 0.483299 0
v 0.026289 0.008741 0.05 0.7 0.7 0.7
vn 0.906823 0.421511 0
v 0.026289 0.008741 -0.05 0.7 0.7 0.7
vn 0.920558 0.390606 0
v 0.026381 0.008502 0.05 0.7 0.7 0.7
vn 0.945368 0.326004 0
v 0.026381 0.008502 -0.05 0.7 0.7 0.7
vn 0.956333 0.292279 0
v 0.026447 0.008255 0.05 0.7 0.7 0.7
vn 0.974205 0.225663 0
v 0.026447 0.008255 -0.05 0.7 0.7 0.7
vn 0.981219 0.192896 0
v 0.026488 0.00800201 0.05 0.7 0.7 0.7
vn 0.992316 0.123729 0
v 0.026488 0.00800201 -0.05 0.7 0.7 0.7
vn 0.996187 0.0872425 0
v 0.026501 0.007746 0.05 0.7 0.7 0.7
vn 0.999999 0.00162382 0
v 0.026501 0.007746 -0.05 0.7 0.7 0.7
vn 1 0.000415935 0
v 0.026501 -0.007746 0.05 0.7 0.7 0.7
vn 1 -0.000415935 0
v 0.026501 -0.007746 -0.05 0.7 0.7 0.7
vn 0.999999 -0.00162382 0
v 0.026488 -0.00800201 0.05 0.7 0.7 0.7
vn 0.996187 -0.0872425 0
v 0.026488 -0.00800201 -0.05 0.7 0.7 0.7
vn 0.992316 -0.123729 0
v 0.026447 -0.008255 0.05 0.7 0.7 0.7
vn 0.981219 -0.192896 0
v 0.026447 -0.008255 -0.05 0.7 0.7 0.7
vn 0.974205 -0.225663 0
v 0.026381 -0.008502 0.05 0.7 0.7 0.7
vn 0.956333 -0.292279 0
v 0.026381 -0.008502 -0.05 0.7 0.7 0.7
vn 0.945368 -0.326004 0
v 0.026289 -0.008741 0.05 0.7 0.7 0.7
vn 0.920558 -0.390606 0
v 0.026289 -0.008741 -0.05 0.7 0.7 0.7
vn 0.906823 -0.421511 0
v 0.026173 -0.00897 0.05 0.7 0.7 0.7
vn 0.875455 -0.483299 0
v 0.026173 -0.00897 -0.05 0.7 0.7 0.7
vn 0.857613 -0.514296 0
v 0.026034 -0.009184 0.05 0.7 0.7 0.7
vn 0.819176 -0.573542 0
v 0.026034 -0.009184 -0.05 0.7 0.7 0.7
vn 0.798759 -0.601651 0
v 0.025873 -0.009383 0.05 0.7 0.7 0.7
vn 0.75492 -0.655817 0
v 0.025873 -0.009383 -0.05 0.7 0.7 0.7
vn 0.731434 -0.681913 0
v 0.025692 -0.009564 0.05 0.7 0.7 0.7
vn 0.681882 -0.731462 0
v 0.025692 -0.009564 -0.05 0.7 0.7 0.7
vn 0.655815 -0.754921 0
v 0.025493 -0.009725 0.05 0.7 0.7 0.7
vn 0.601887 -0.798581 0
v 0.025493 -0.009725 -0.05 0.7 0.7 0.7
vn 0.5741 -0.818785 0
v 0.025278 -0.00986501 0.05 0.7 0.7 0.7
vn 0.515654 -0.856797 0
v 0.025278 -0.00986501 -0.05 0.7 0.7 0.7
vn 0.484845 -0.8746 0
v 0.02505 -0.009981 0.05 0.7 0.7 0.7
vn 0.422498 -0.906364 0
v 0.02505 -0.009981 -0.05 0.7 0.7 0.7
vn 0.391081 -0.920356 0
v 0.024811 -0.010073 0.05 0.7 0.7 0.7
vn 0.325592 -0.94551 0
v 0.024811 -0.010073 -0.05 0.7 0.7 0.7
vn 0.291512 -0.956567 0
v 0.024563 -0.010139 0.05 0.7 0.7 0.7
vn 0.223813 -0.974632 0
v 0.024563 -0.010139 -0.05 0.7 0.7 0.7
vn 0.190124 -0.98176 0
v 0.02431 -0.010179 0.05 0.7 0.7 0.7
vn 0.122609 -0.992455 0
v 0.02431 -0.010179 -0.05 0.7 0.7 0.7
vn 0.0887658 -0.996053 0
v 0.024055 -0.010193 0.05 0.7 0.7 0.7
vn 0.000575574 -1 0
v 0.024055 -0.010193 -0.05 0.7 0.7 0.7
vn 0.000595552 -1 0
v -0.024563 0.010139 0.05 0.7 0.7 0.7
vn 0 0 1
v -0.025278 0.00986499 0.05 0.7 0.7 0.7
vn 0 0 1
v -0.025493 0.009725 0.05 0.7 0.7 0.7
vn 0 0 1
v -0.024811 0.010073 0.05 0.7 0.7 0.7
vn 0 0 1
v -0.02505 0.009981 0.05 0.7 0.7 0.7
vn 0 0 1
v -0.025692 0.009564 0.05 0.7 0.7 0.7
vn 0 0 1
v -0.025873 0.009383 0.05 0.7 0.7 0.7
vn 0 0 1
v 0.024563 0.010139 0.05 0.7 0.7 0.7
vn 0 0 1
v 0.025278 0.00986499 0.05 0.7 0.7 0.7
vn 0 0 1
v 0.02505 0.009981 0.05 0.7 0.7 0.7
vn 0 0 1
v 0.025692 0.009564 0.05 0.7 0.7 0.7
vn 0 0 1
v 0.025493 0.009725 0.05 0.7 0.7 0.7
vn 0 0 1
v -0.024563 -0.010139 0.05 0.7 0.7 0.7
vn 0 0 1
v -0.025493 -0.009725 0.05 0.7 0.7 0.7
vn 0 0 1
v -0.025278 -0.00986501 0.05 0.7 0.7 0.7
vn 0 0 1
v -0.026034 0.009184 0.05 0.7 0.7 0.7
vn 0 0 1
v -0.026173 0.00897 0.05 0.7 0.7 0.7
vn 0 0 1
v 0.02431 -0.010179 0.05 0.7 0.7 0.7
vn 0 0 1
v 0.026173 -0.00897 0.05 0.7 0.7 0.7
vn 0 0 1
v 0.026289 -0.008741 0.05 0.7 0.7 0.7
vn 0 0 1
v 0.025278 -0.00986501 0.05 0.7 0.7 0.7
vn 0 0 1
v 0.025873 -0.009383 0.05 0.7 0.7 0.7
vn 0 0 1
v 0.026034 -0.009184 0.05 0.7 0.7 0.7
vn 0 0 1
v 0.025493 -0.009725 0.05 0.7 0.7 0.7
vn 0 0 1
v 0.025692 -0.009564 0.05 0.7 0.7 0.7
vn 0 0 1
v 0.024811 -0.010073 0.05 0.7 0.7 0.7
vn 0 0 1
v 0.02505 -0.009981 0.05 0.7 0.7 0.7
vn 0 0 1
v 0.024563 -0.010139 0.05 0.7 0.7 0.7
vn 0 0 1
v -0.02431 -0.010179 0.05 0.7 0.7 0.7
vn 0 0 1
v -0.02505 -0.009981 0.05 0.7 0.7 0.7
vn 0 0 1
v -0.024055 0.010193 0.05 0.7 0.7 0.7
vn 0 0 1
v -0.026289 0.008741 0.05 0.7 0.7 0.7
vn 0 0 1
v -0.026381 0.008502 0.05 0.7 0.7 0.7
vn 0 0 1
v -0.02431 0.010179 0.05 0.7 0.7 0.7
vn 0 0 1
v 0.025873 0.009383 0.05 0.7 0.7 0.7
vn 0 0 1
v 0.026381 -0.008502 0.05 0.7 0.7 0.7
vn 0 0 1
v -0.024811 -0.010073 0.05 0.7 0.7 0.7
vn 0 0 1
v -0.024055 -0.010193 0.05 0.7 0.7 0.7
vn 0 0 1
v -0.025873 -0.009383 0.05 0.7 0.7 0.7
vn 0 0 1
v -0.025692 -0.009564 0.05 0.7 0.7 0.7
vn 0 0 1
v -0.026173 -0.00897 0.05 0.7 0.7 0.7
vn 0 0 1
v -0.026034 -0.009184 0.05 0.7 0.7 0.7
vn 0 0 1
v -0.026381 -0.008502 0.05 0.7 0.7 0.7
vn 0 0 1
v -0.026289 -0.008741 0.05 0.7 0.7 0.7
vn 0 0 1
v -0.026448 0.008255 0.05 0.7 0.7 0.7
vn 0 0 1
v 0.026034 0.009184 0.05 0.7 0.7 0.7
vn 0 0 1
v 0.026289 0.008741 0.05 0.7 0.7 0.7
vn 0 0 1
v 0.026173 0.00897 0.05 0.7 0.7 0.7
vn 0 0 1
v 0.026447 -0.008255 0.05 0.7 0.7 0.7
vn 0 0 1
v -0.026488 -0.00800201 0.05 0.7 0.7 0.7
vn 0 0 1
v -0.026448 -0.008255 0.05 0.7 0.7 0.7
vn 0 0 1
v 0.02431 0.010179 0.05 0.7 0.7 0.7
vn 0 0 1
v 0.024055 0.010193 0.05 0.7 0.7 0.7
vn 0 0 1
v 0.026447 0.008255 0.05 0.7 0.7 0.7
vn 0 0 1
v 0.026381 0.008502 0.05 0.7 0.7 0.7
vn 0 0 1
v -0.026501 -0.007746 0.05 0.7 0.7 0.7
vn 0 0 1
v -0.026501 0.007746 0.05 0.7 0.7 0.7
vn 0 0 1
v -0.026488 0.00800201 0.05 0.7 0.7 0.7
vn 0 0 1
v 0.024811 0.010073 0.05 0.7 0.7 0.7
vn 0 0 1
v 0.026488 0.00800201 0.05 0.7 0.7 0.7
vn 0 0 1
v 0.026488 -0.00800201 0.05 0.7 0.7 0.7
vn 0 0 1
v 0.024055 -0.010193 0.05 0.7 0.7 0.7
vn 0 0 1
v 0.026501 -0.007746 0.05 0.7 0.7 0.7
vn 0 0 1
v 0.026501 0.007746 0.05 0.7 0.7 0.7
vn 0 0 1
v -0.026501 0.007746 -0.05 0.7 0.7 0.7
vn -0.999999 0.00162382 0
v -0.026501 0.007746 0.05 0.7 0.7 0.7
vn -1 0.000415935 0
v -0.026488 0.00800201 0.05 0.7 0.7 0.7
vn -0.996301 0.0859328 0
v -0.026488 0.00800201 -0.05 0.7 0.7 0.7
vn -0.992637 0.121129 0
v -0.026448 0.008255 0.05 0.7 0.7 0.7
vn -0.981476 0.191587 0
v -0.026448 0.008255 -0.05 0.7 0.7 0.7
vn -0.973931 0.226843 0
v -0.026381 0.008502 0.05 0.7 0.7 0.7
vn -0.955613 0.294624 0
v -0.026381 0.008502 -0.05 0.7 0.7 0.7
vn -0.944973 0.327149 0
v -0.026289 0.008741 0.05 0.7 0.7 0.7
vn -0.920544 0.390639 0
v -0.026289 0.008741 -0.05 0.7 0.7 0.7
vn -0.906794 0.421574 0
v -0.026173 0.00897 0.05 0.7 0.7 0.7
vn -0.875422 0.483359 0
v -0.026173 0.00897 -0.05 0.7 0.7 0.7
vn -0.857596 0.514324 0
v -0.026034 0.009184 0.05 0.7 0.7 0.7
vn -0.819176 0.573542 0
v -0.026034 0.009184 -0.05 0.7 0.7 0.7
vn -0.798759 0.601651 0
v -0.025873 0.009383 0.05 0.7 0.7 0.7
vn -0.754939 0.655795 0
v -0.025873 0.009383 -0.05 0.7 0.7 0.7
vn -0.731473 0.681871 0
v -0.025692 0.009564 0.05 0.7 0.7 0.7
vn -0.681901 0.731444 0
v -0.025692 0.009564 -0.05 0.7 0.7 0.7
vn -0.655796 0.754938 0
v -0.025493 0.009725 0.05 0.7 0.7 0.7
vn -0.601837 0.798619 0
v -0.025493 0.009725 -0.05 0.7 0.7 0.7
vn -0.574056 0.818816 0
v -0.025278 0.00986499 0.05 0.7 0.7 0.7
vn -0.515657 0.856795 0
v -0.025278 0.00986499 -0.05 0.7 0.7 0.7
vn -0.484892 0.874574 0
v -0.02505 0.009981 0.05 0.7 0.7 0.7
vn -0.422545 0.906342 0
v -0.02505 0.009981 -0.05 0.7 0.7 0.7
vn -0.391083 0.920355 0
v -0.024811 0.010073 0.05 0.7 0.7 0.7
vn -0.32558 0.945515 0
v -0.024811 0.010073 -0.05 0.7 0.7 0.7
vn -0.291523 0.956564 0
v -0.024563 0.010139 0.05 0.7 0.7 0.7
vn -0.223821 0.97463 0
v -0.024563 0.010139 -0.05 0.7 0.7 0.7
vn -0.190117 0.981762 0
v -0.02431 0.010179 0.05 0.7 0.7 0.7
vn -0.1226 0.992456 0
v -0.02431 0.010179 -0.05 0.7 0.7 0.7
vn -0.0887624 0.996053 0
v -0.024055 0.010193 0.05 0.7 0.7 0.7
vn -0.000575574 1 0
v -0.024055 0.010193 -0.05 0.7 0.7 0.7
vn -0.000595552 1 0
v -0.024055 -0.010193 -0.05 0.7 0.7 0.7
vn -0.00117831 -0.999999 0
v -0.024055 -0.010193 0.05 0.7 0.7 0.7
vn -0.000351536 -1 0
v -0.02431 -0.010179 0.05 0.7 0.7 0.7
vn -0.0887624 -0.996053 0
v -0.02431 -0.010179 -0.05 0.7 0.7 0.7
vn -0.1226 -0.992456 0
v -0.024563 -0.010139 0.05 0.7 0.7 0.7
vn -0.190117 -0.981762 0
v -0.024563 -0.010139 -0.05 0.7 0.7 0.7
vn -0.223821 -0.97463 0
v -0.024811 -0.010073 0.05 0.7 0.7 0.7
vn -0.291523 -0.956564 0
v -0.024811 -0.010073 -0.05 0.7 0.7 0.7
vn -0.32558 -0.945515 0
v -0.02505 -0.009981 0.05 0.7 0.7 0.7
vn -0.391067 -0.920362 0
v -0.02505 -0.009981 -0.05 0.7 0.7 0.7
vn -0.422513 -0.906357 0
v -0.025278 -0.00986501 0.05 0.7 0.7 0.7
vn -0.484878 -0.874582 0
v -0.025278 -0.00986501 -0.05 0.7 0.7 0.7
vn -0.515671 -0.856787 0
v -0.025493 -0.009725 0.05 0.7 0.7 0.7
vn -0.574082 -0.818798 0
v -0.025493 -0.009725 -0.05 0.7 0.7 0.7
vn -0.60185 -0.79861 0
v -0.025692 -0.009564 0.05 0.7 0.7 0.7
vn -0.655796 -0.754938 0
v -0.025692 -0.009564 -0.05 0.7 0.7 0.7
vn -0.681901 -0.731444 0
v -0.025873 -0.009383 0.05 0.7 0.7 0.7
vn -0.731473 -0.681871 0
v -0.025873 -0.009383 -0.05 0.7 0.7 0.7
vn -0.754939 -0.655795 0
v -0.026034 -0.009184 0.05 0.7 0.7 0.7
vn -0.798759 -0.601651 0
v -0.026034 -0.009184 -0.05 0.7 0.7 0.7
vn -0.819176 -0.573542 0
v -0.026173 -0.00897 0.05 0.7 0.7 0.7
vn -0.857596 -0.514324 0
v -0.026173 -0.00897 -0.05 0.7 0.7 0.7
vn -0.875422 -0.483359 0
v -0.026289 -0.008741 0.05 0.7 0.7 0.7
vn -0.906794 -0.421574 0
v -0.026289 -0.008741 -0.05 0.7 0.7 0.7
vn -0.920544 -0.390639 0
v -0.026381 -0.008502 0.05 0.7 0.7 0.7
vn -0.944973 -0.327149 0
v -0.026381 -0.008502 -0.05 0.7 0.7 0.7
vn -0.955613 -0.294624 0
v -0.026448 -0.008255 0.05 0.7 0.7 0.7
vn -0.973931 -0.226843 0
v -0.026448 -0.008255 -0.05 0.7 0.7 0.7
vn -0.981476 -0.191587 0
v -0.026488 -0.00800201 0.05 0.7 0.7 0.7
vn -0.992637 -0.121129 0
v -0.026488 -0.00800201 -0.05 0.7 0.7 0.7
vn -0.996301 -0.0859328 0
v -0.026501 -0.007746 0.05 0.7 0.7 0.7
vn -0.999999 -0.00162382 0
v -0.026501 -0.007746 -0.05 0.7 0.7 0.7
vn -1 -0.000415935 0
v 0.026173 -0.00897 -0.05 0.7 0.7 0.7
vn 0 0 -1
v 0.024811 -0.010073 -0.05 0.7 0.7 0.7
vn 0 0 -1
v 0.024563 -0.010139 -0.05 0.7 0.7 0.7
vn 0 0 -1
v 0.025278 -0.00986501 -0.05 0.7 0.7 0.7
vn 0 0 -1
v 0.02505 -0.009981 -0.05 0.7 0.7 0.7
vn 0 0 -1
v 0.025873 -0.009383 -0.05 0.7 0.7 0.7
vn 0 0 -1
v 0.025692 -0.009564 -0.05 0.7 0.7 0.7
vn 0 0 -1
v 0.026034 -0.009184 -0.05 0.7 0.7 0.7
vn 0 0 -1
v 0.02431 -0.010179 -0.05 0.7 0.7 0.7
vn 0 0 -1
v 0.026381 -0.008502 -0.05 0.7 0.7 0.7
vn 0 0 -1
v 0.026289 -0.008741 -0.05 0.7 0.7 0.7
vn 0 0 -1
v 0.024563 0.010139 -0.05 0.7 0.7 0.7
vn 0 0 -1
v 0.025278 0.00986499 -0.05 0.7 0.7 0.7
vn 0 0 -1
v 0.025493 0.009725 -0.05 0.7 0.7 0.7
vn 0 0 -1
v 0.024811 0.010073 -0.05 0.7 0.7 0.7
vn 0 0 -1
v 0.02505 0.009981 -0.05 0.7 0.7 0.7
vn 0 0 -1
v 0.026447 -0.008255 -0.05 0.7 0.7 0.7
vn 0 0 -1
v 0.025692 0.009564 -0.05 0.7 0.7 0.7
vn 0 0 -1
v 0.025873 0.009383 -0.05 0.7 0.7 0.7
vn 0 0 -1
v 0.008053 -0.010139 -0.05 0.7 0.7 0.7
vn 0 0 -1
v 0.00756699 -0.009981 -0.05 0.7 0.7 0.7
vn 0 0 -1
v 0.007339 -0.00986501 -0.05 0.7 0.7 0.7
vn 0 0 -1
v 0.025493 -0.009725 -0.05 0.7 0.7 0.7
vn 0 0 -1
v 0.026488 -0.00800201 -0.05 0.7 0.7 0.7
vn 0 0 -1
v 0.026034 0.009184 -0.05 0.7 0.7 0.7
vn 0 0 -1
v 0.026173 0.00897 -0.05 0.7 0.7 0.7
vn 0 0 -1
v 0.007806 -0.010073 -0.05 0.7 0.7 0.7
vn 0 0 -1
v 0.00712401 -0.009725 -0.05 0.7 0.7 0.7
vn 0 0 -1
v 0.008562 -0.010193 -0.05 0.7 0.7 0.7
vn 0 0 -1
v 0.008306 -0.010179 -0.05 0.7 0.7 0.7
vn 0 0 -1
v 0.024055 0.010193 -0.05 0.7 0.7 0.7
vn 0 0 -1
v 0.026289 0.008741 -0.05 0.7 0.7 0.7
vn 0 0 -1
v 0.026381 0.008502 -0.05 0.7 0.7 0.7
vn 0 0 -1
v 0.02431 0.010179 -0.05 0.7 0.7 0.7
vn 0 0 -1
v 0.008562 0.010193 -0.05 0.7 0.7 0.7
vn 0 0 -1
v 0.00712401 0.009725 -0.05 0.7 0.7 0.7
vn 0 0 -1
v 0.007339 0.00986499 -0.05 0.7 0.7 0.7
vn 0 0 -1
v 0.006744 0.009383 -0.05 0.7 0.7 0.7
vn 0 0 -1
v 0.00692499 0.009564 -0.05 0.7 0.7 0.7
vn 0 0 -1
v 0.006235 0.008502 -0.05 0.7 0.7 0.7
vn 0 0 -1
v 0.006327 0.008741 -0.05 0.7 0.7 0.7
vn 0 0 -1
v 0.00644299 -0.00897 -0.05 0.7 0.7 0.7
vn 0 0 -1
v 0.006327 -0.008741 -0.05 0.7 0.7 0.7
vn 0 0 -1
v 0.006744 -0.009383 -0.05 0.7 0.7 0.7
vn 0 0 -1
v 0.00658301 -0.009184 -0.05 0.7 0.7 0.7
vn 0 0 -1
v 0.00692499 -0.009564 -0.05 0.7 0.7 0.7
vn 0 0 -1
v 0.026447 0.008255 -0.05 0.7 0.7 0.7
vn 0 0 -1
v 0.007806 0.010073 -0.05 0.7 0.7 0.7
vn 0 0 -1
v 0.008053 0.010139 -0.05 0.7 0.7 0.7
vn 0 0 -1
v 0.00756699 0.009981 -0.05 0.7 0.7 0.7
vn 0 0 -1
v 0.00658301 0.009184 -0.05 0.7 0.7 0.7
vn 0 0 -1
v 0.00644299 0.00897 -0.05 0.7 0.7 0.7
vn 0 0 -1
v 0.006235 -0.008502 -0.05 0.7 0.7 0.7
vn 0 0 -1
v 0.00616899 -0.008255 -0.05 0.7 0.7 0.7
vn 0 0 -1
v 0.024055 -0.010193 -0.05 0.7 0.7 0.7
vn 0 0 -1
v 0.026501 -0.007746 -0.05 0.7 0.7 0.7
vn 0 0 -1
v 0.026501 0.007746 -0.05 0.7 0.7 0.7
vn 0 0 -1
v 0.006116 0.007746 -0.05 0.7 0.7 0.7
vn 0 0 -1
v 0.006129 0.00800201 -0.05 0.7 0.7 0.7
vn 0 0 -1
v 0.006129 -0.00800201 -0.05 0.7 0.7 0.7
vn 0 0 -1
v 0.026488 0.00800201 -0.05 0.7 0.7 0.7
vn 0 0 -1
v 0.00616899 0.008255 -0.05 0.7 0.7 0.7
vn 0 0 -1
v 0.006116 -0.007746 -0.05 0.7 0.7 0.7
vn 0 0 -1
v 0.008306 0.010179 -0.05 0.7 0.7 0.7
vn 0 0 -1
v 0.006116 0.007746 -0.05 0.7 0.7 0.7
vn -0.999999 0.00162382 0
v 0.006116 0.007746 0 0.7 0.7 0.7
vn -1 0.000415935 0
v 0.006129 0.00800201 0 0.7 0.7 0.7
vn -0.996301 0.0859328 0
v 0.006129 0.00800201 -0.05 0.7 0.7 0.7
vn -0.992637 0.121129 0
v 0.00616899 0.008255 0 0.7 0.7 0.7
vn -0.981716 0.190352 0
v 0.00616899 0.008255 -0.05 0.7 0.7 0.7
vn -0.974495 0.224408 0
v 0.006235 0.008502 0 0.7 0.7 0.7
vn -0.956333 0.292279 0
v 0.006235 0.008502 -0.05 0.7 0.7 0.7
vn -0.945368 0.326004 0
v 0.006327 0.008741 0 0.7 0.7 0.7
vn -0.920558 0.390606 0
v 0.006327 0.008741 -0.05 0.7 0.7 0.7
vn -0.906823 0.421511 0
v 0.00644299 0.00897 0 0.7 0.7 0.7
vn -0.874897 0.48431 0
v 0.00644299 0.00897 -0.05 0.7 0.7 0.7
vn -0.856446 0.516237 0
v 0.00658301 0.009184 0 0.7 0.7 0.7
vn -0.817932 0.575315 0
v 0.00658301 0.009184 -0.05 0.7 0.7 0.7
vn -0.798124 0.602494 0
v 0.006744 0.009383 0 0.7 0.7 0.7
vn -0.754939 0.655795 0
v 0.006744 0.009383 -0.05 0.7 0.7 0.7
vn -0.731473 0.681871 0
v 0.00692499 0.009564 0 0.7 0.7 0.7
vn -0.681901 0.731444 0
v 0.00692499 0.009564 -0.05 0.7 0.7 0.7
vn -0.655796 0.754938 0
v 0.00712401 0.009725 0 0.7 0.7 0.7
vn -0.601837 0.798619 0
v 0.00712401 0.009725 -0.05 0.7 0.7 0.7
vn -0.574056 0.818816 0
v 0.007339 0.00986499 0 0.7 0.7 0.7
vn -0.515657 0.856795 0
v 0.007339 0.00986499 -0.05 0.7 0.7 0.7
vn -0.484892 0.874574 0
v 0.00756699 0.009981 0 0.7 0.7 0.7
vn -0.422545 0.906342 0
v 0.00756699 0.009981 -0.05 0.7 0.7 0.7
vn -0.391083 0.920355 0
v 0.007806 0.010073 0 0.7 0.7 0.7
vn -0.325975 0.945379 0
v 0.007806 0.010073 -0.05 0.7 0.7 0.7
vn -0.292238 0.956346 0
v 0.008053 0.010139 0 0.7 0.7 0.7
vn -0.22439 0.9745 0
v 0.008053 0.010139 -0.05 0.7 0.7 0.7
vn -0.19037 0.981712 0
v 0.008306 0.010179 0 0.7 0.7 0.7
vn -0.122448 0.992475 0
v 0.008306 0.010179 -0.05 0.7 0.7 0.7
vn -0.0885325 0.996073 0
v 0.008562 0.010193 0 0.7 0.7 0.7
vn -0.00024936 1 0
v 0.008562 0.010193 -0.05 0.7 0.7 0.7
vn -0.000888449 1 0
v 0.006116 -0.007746 -0.05 0.7 0.7 0.7
vn -1 -0.000415935 0
v 0.006116 -0.007746 0 0.7 0.7 0.7
vn -0.999999 -0.00162382 0
v 0.008562 -0.010193 -0.05 0.7 0.7 0.7
vn -0.00174847 -0.999998 0
v 0.008562 -0.010193 0 0.7 0.7 0.7
vn -0.000219111 -1 0
v 0.008306 -0.010179 0 0.7 0.7 0.7
vn -0.0885325 -0.996073 0
v 0.008306 -0.010179 -0.05 0.7 0.7 0.7
vn -0.122448 -0.992475 0
v 0.008053 -0.010139 0 0.7 0.7 0.7
vn -0.19037 -0.981712 0
v 0.008053 -0.010139 -0.05 0.7 0.7 0.7
vn -0.22439 -0.9745 0
v 0.007806 -0.010073 0 0.7 0.7 0.7
vn -0.292238 -0.956346 0
v 0.007806 -0.010073 -0.05 0.7 0.7 0.7
vn -0.325975 -0.945379 0
v 0.00756699 -0.009981 0 0.7 0.7 0.7
vn -0.391067 -0.920362 0
v 0.00756699 -0.009981 -0.05 0.7 0.7 0.7
vn -0.422513 -0.906357 0
v 0.007339 -0.00986501 0 0.7 0.7 0.7
vn -0.484878 -0.874582 0
v 0.007339 -0.00986501 -0.05 0.7 0.7 0.7
vn -0.515671 -0.856787 0
v 0.00712401 -0.009725 0 0.7 0.7 0.7
vn -0.574082 -0.818798 0
v 0.00712401 -0.009725 -0.05 0.7 0.7 0.7
vn -0.60185 -0.79861 0
v 0.00692499 -0.009564 0 0.7 0.7 0.7
vn -0.655796 -0.754938 0
v 0.00692499 -0.009564 -0.05 0.7 0.7 0.7
vn -0.681901 -0.731444 0
v 0.006744 -0.009383 0 0.7 0.7 0.7
vn -0.731473 -0.681871 0
v 0.006744 -0.009383 -0.05 0.7 0.7 0.7
vn -0.754939 -0.655795 0
v 0.00658301 -0.009184 0 0.7 0.7 0.7
vn -0.798124 -0.602494 0
v 0.00658301 -0.009184 -0.05 0.7 0.7 0.7
vn -0.817932 -0.575315 0
v 0.00644299 -0.00897 0 0.7 0.7 0.7
vn -0.856446 -0.516237 0
v 0.00644299 -0.00897 -0.05 0.7 0.7 0.7
vn -0.874897 -0.48431 0
v 0.006327 -0.008741 0 0.7 0.7 0.7
vn -0.906823 -0.421511 0
v 0.006327 -0.008741 -0.05 0.7 0.7 0.7
vn -0.920558 -0.390606 0
v 0.006235 -0.008502 0 0.7 0.7 0.7
vn -0.945368 -0.326004 0
v 0.006235 -0.008502 -0.05 0.7 0.7 0.7
vn -0.956333 -0.292279 0
v 0.00616899 -0.008255 0 0.7 0.7 0.7
vn -0.974495 -0.224408 0
v 0.00616899 -0.008255 -0.05 0.7 0.7 0.7
vn -0.981716 -0.190352 0
v 0.006129 -0.00800201 0 0.7 0.7 0.7
vn -0.992637 -0.121129 0
v 0.006129 -0.00800201 -0.05 0.7 0.7 0.7
vn -0.996301 -0.0859328 0
v -0.008562 0.010193 0 0.7 0.7 0.7
vn 0.000219111 1 0
v -0.008562 0.010193 -0.05 0.7 0.7 0.7
vn 0.00174847 0.999998 0
v -0.008562 -0.010193 0 0.7 0.7 0.7
vn 0.00024936 -1 0
v -0.008562 -0.010193 -0.05 0.7 0.7 0.7
vn 0.000888449 -1 0
v -0.008053 -0.010139 -0.05 0.7 0.7 0.7
vn 0 0 -1
v -0.007339 -0.00986501 -0.05 0.7 0.7 0.7
vn 0 0 -1
v -0.00756702 -0.009981 -0.05 0.7 0.7 0.7
vn 0 0 -1
v -0.00692502 -0.009564 -0.05 0.7 0.7 0.7
vn 0 0 -1
v -0.00712401 -0.009725 -0.05 0.7 0.7 0.7
vn 0 0 -1
v -0.024563 0.010139 -0.05 0.7 0.7 0.7
vn 0 0 -1
v -0.025278 0.00986499 -0.05 0.7 0.7 0.7
vn 0 0 -1
v -0.02505 0.009981 -0.05 0.7 0.7 0.7
vn 0 0 -1
v -0.025692 0.009564 -0.05 0.7 0.7 0.7
vn 0 0 -1
v -0.025493 0.009725 -0.05 0.7 0.7 0.7
vn 0 0 -1
v -0.006744 -0.009383 -0.05 0.7 0.7 0.7
vn 0 0 -1
v -0.008053 0.010139 -0.05 0.7 0.7 0.7
vn 0 0 -1
v -0.007339 0.00986499 -0.05 0.7 0.7 0.7
vn 0 0 -1
v -0.00712401 0.009725 -0.05 0.7 0.7 0.7
vn 0 0 -1
v -0.007806 0.010073 -0.05 0.7 0.7 0.7
vn 0 0 -1
v -0.00756702 0.009981 -0.05 0.7 0.7 0.7
vn 0 0 -1
v -0.00658301 -0.009184 -0.05 0.7 0.7 0.7
vn 0 0 -1
v -0.006327 -0.008741 -0.05 0.7 0.7 0.7
vn 0 0 -1
v -0.00644299 -0.00897 -0.05 0.7 0.7 0.7
vn 0 0 -1
v -0.00692502 0.009564 -0.05 0.7 0.7 0.7
vn 0 0 -1
v -0.006744 0.009383 -0.05 0.7 0.7 0.7
vn 0 0 -1
v -0.025873 0.009383 -0.05 0.7 0.7 0.7
vn 0 0 -1
v -0.008306 -0.010179 -0.05 0.7 0.7 0.7
vn 0 0 -1
v -0.008562 -0.010193 -0.05 0.7 0.7 0.7
vn 0 0 -1
v -0.00616899 -0.008255 -0.05 0.7 0.7 0.7
vn 0 0 -1
v -0.006235 -0.008502 -0.05 0.7 0.7 0.7
vn 0 0 -1
v -0.00658301 0.009184 -0.05 0.7 0.7 0.7
vn 0 0 -1
v -0.00644299 0.00897 -0.05 0.7 0.7 0.7
vn 0 0 -1
v -0.026034 0.009184 -0.05 0.7 0.7 0.7
vn 0 0 -1
v -0.026289 0.008741 -0.05 0.7 0.7 0.7
vn 0 0 -1
v -0.026173 0.00897 -0.05 0.7 0.7 0.7
vn 0 0 -1
v -0.024563 -0.010139 -0.05 0.7 0.7 0.7
vn 0 0 -1
v -0.02505 -0.009981 -0.05 0.7 0.7 0.7
vn 0 0 -1
v -0.025278 -0.00986501 -0.05 0.7 0.7 0.7
vn 0 0 -1
v -0.007806 -0.010073 -0.05 0.7 0.7 0.7
vn 0 0 -1
v -0.006129 -0.00800201 -0.05 0.7 0.7 0.7
vn 0 0 -1
v -0.008562 0.010193 -0.05 0.7 0.7 0.7
vn 0 0 -1
v -0.006327 0.008741 -0.05 0.7 0.7 0.7
vn 0 0 -1
v -0.006235 0.008502 -0.05 0.7 0.7 0.7
vn 0 0 -1
v -0.008306 0.010179 -0.05 0.7 0.7 0.7
vn 0 0 -1
v -0.02431 0.010179 -0.05 0.7 0.7 0.7
vn 0 0 -1
v -0.024055 0.010193 -0.05 0.7 0.7 0.7
vn 0 0 -1
v -0.026448 0.008255 -0.05 0.7 0.7 0.7
vn 0 0 -1
v -0.026381 0.008502 -0.05 0.7 0.7 0.7
vn 0 0 -1
v -0.024811 -0.010073 -0.05 0.7 0.7 0.7
vn 0 0 -1
v -0.025493 -0.009725 -0.05 0.7 0.7 0.7
vn 0 0 -1
v -0.024055 -0.010193 -0.05 0.7 0.7 0.7
vn 0 0 -1
v -0.02431 -0.010179 -0.05 0.7 0.7 0.7
vn 0 0 -1
v -0.00616899 0.008255 -0.05 0.7 0.7 0.7
vn 0 0 -1
v -0.024811 0.010073 -0.05 0.7 0.7 0.7
vn 0 0 -1
v -0.026488 0.00800201 -0.05 0.7 0.7 0.7
vn 0 0 -1
v -0.026173 -0.00897 -0.05 0.7 0.7 0.7
vn 0 0 -1
v -0.026289 -0.008741 -0.05 0.7 0.7 0.7
vn 0 0 -1
v -0.025873 -0.009383 -0.05 0.7 0.7 0.7
vn 0 0 -1
v -0.026034 -0.009184 -0.05 0.7 0.7 0.7
vn 0 0 -1
v -0.025692 -0.009564 -0.05 0.7 0.7 0.7
vn 0 0 -1
v -0.006116 -0.007746 -0.05 0.7 0.7 0.7
vn 0 0 -1
v -0.006116 0.007746 -0.05 0.7 0.7 0.7
vn 0 0 -1
v -0.026381 -0.008502 -0.05 0.7 0.7 0.7
vn 0 0 -1
v -0.026448 -0.008255 -0.05 0.7 0.7 0.7
vn 0 0 -1
v -0.006129 0.00800201 -0.05 0.7 0.7 0.7
vn 0 0 -1
v -0.026501 0.007746 -0.05 0.7 0.7 0.7
vn 0 0 -1
v -0.026501 -0.007746 -0.05 0.7 0.7 0.7
vn 0 0 -1
v -0.026488 -0.00800201 -0.05 0.7 0.7 0.7
vn 0 0 -1
v -0.006116 -0.007746 0 0.7 0.7 0.7
vn 0 0 -1
v -0.006116 0.007746 0 0.7 0.7 0.7
vn 0 0 -1
v 0.006116 0.007746 0 0.7 0.7 0.7
vn 0 0 -1
v 0.006129 0.00800201 0 0.7 0.7 0.7
vn 0 0 -1
v 0.006116 -0.007746 0 0.7 0.7 0.7
vn 0 0 -1
v 0.006129 -0.00800201 0 0.7 0.7 0.7
vn 0 0 -1
v -0.006129 -0.00800201 0 0.7 0.7 0.7
vn 0 0 -1
v -0.00644299 -0.00897 0 0.7 0.7 0.7
vn 0 0 -1
v 0.007339 -0.00986501 0 0.7 0.7 0.7
vn 0 0 -1
v 0.00756699 -0.009981 0 0.7 0.7 0.7
vn 0 0 -1
v 0.00692499 -0.009564 0 0.7 0.7 0.7
vn 0 0 -1
v 0.00712401 -0.009725 0 0.7 0.7 0.7
vn 0 0 -1
v 0.00658301 -0.009184 0 0.7 0.7 0.7
vn 0 0 -1
v 0.006744 -0.009383 0 0.7 0.7 0.7
vn 0 0 -1
v 0.006327 -0.008741 0 0.7 0.7 0.7
vn 0 0 -1
v 0.00644299 -0.00897 0 0.7 0.7 0.7
vn 0 0 -1
v -0.00616899 -0.008255 0 0.7 0.7 0.7
vn 0 0 -1
v 0.008306 -0.010179 0 0.7 0.7 0.7
vn 0 0 -1
v -0.006744 -0.009383 0 0.7 0.7 0.7
vn 0 0 -1
v -0.00658301 -0.009184 0 0.7 0.7 0.7
vn 0 0 -1
v -0.00692502 -0.009564 0 0.7 0.7 0.7
vn 0 0 -1
v -0.006129 0.00800201 0 0.7 0.7 0.7
vn 0 0 -1
v 0.006744 0.009383 0 0.7 0.7 0.7
vn 0 0 -1
v 0.00658301 0.009184 0 0.7 0.7 0.7
vn 0 0 -1
v -0.00692502 0.009564 0 0.7 0.7 0.7
vn 0 0 -1
v 0.008562 0.010193 0 0.7 0.7 0.7
vn 0 0 -1
v 0.008306 0.010179 0 0.7 0.7 0.7
vn 0 0 -1
v 0.007806 -0.010073 0 0.7 0.7 0.7
vn 0 0 -1
v 0.008053 -0.010139 0 0.7 0.7 0.7
vn 0 0 -1
v 0.00616899 -0.008255 0 0.7 0.7 0.7
vn 0 0 -1
v 0.006235 -0.008502 0 0.7 0.7 0.7
vn 0 0 -1
v -0.006235 -0.008502 0 0.7 0.7 0.7
vn 0 0 -1
v -0.006327 -0.008741 0 0.7 0.7 0.7
vn 0 0 -1
v 0.008562 -0.010193 0 0.7 0.7 0.7
vn 0 0 -1
v -0.00756702 -0.009981 0 0.7 0.7 0.7
vn 0 0 -1
v -0.007339 -0.00986501 0 0.7 0.7 0.7
vn 0 0 -1
v 0.00692499 0.009564 0 0.7 0.7 0.7
vn 0 0 -1
v -0.00712401 0.009725 0 0.7 0.7 0.7
vn 0 0 -1
v -0.007339 0.00986499 0 0.7 0.7 0.7
vn 0 0 -1
v -0.006744 0.009383 0 0.7 0.7 0.7
vn 0 0 -1
v -0.00644299 0.00897 0 0.7 0.7 0.7
vn 0 0 -1
v -0.00658301 0.009184 0 0.7 0.7 0.7
vn 0 0 -1
v -0.00712401 -0.009725 0 0.7 0.7 0.7
vn 0 0 -1
v -0.007806 -0.010073 0 0.7 0.7 0.7
vn 0 0 -1
v -0.008306 -0.010179 0 0.7 0.7 0.7
vn 0 0 -1
v -0.008053 -0.010139 0 0.7 0.7 0.7
vn 0 0 -1
v 0.006327 0.008741 0 0.7 0.7 0.7
vn 0 0 -1
v 0.006235 0.008502 0 0.7 0.7 0.7
vn 0 0 -1
v 0.00644299 0.00897 0 0.7 0.7 0.7
vn 0 0 -1
v 0.007339 0.00986499 0 0.7 0.7 0.7
vn 0 0 -1
v 0.00712401 0.009725 0 0.7 0.7 0.7
vn 0 0 -1
v 0.008053 0.010139 0 0.7 0.7 0.7
vn 0 0 -1
v 0.007806 0.010073 0 0.7 0.7 0.7
vn 0 0 -1
v -0.00756702 0.009981 0 0.7 0.7 0.7
vn 0 0 -1
v -0.008562 -0.010193 0 0.7 0.7 0.7
vn 0 0 -1
v 0.00756699 0.009981 0 0.7 0.7 0.7
vn 0 0 -1
v -0.007806 0.010073 0 0.7 0.7 0.7
vn 0 0 -1
v -0.008053 0.010139 0 0.7 0.7 0.7
vn 0 0 -1
v 0.00616899 0.008255 0 0.7 0.7 0.7
vn 0 0 -1
v -0.006235 0.008502 0 0.7 0.7 0.7
vn 0 0 -1
v -0.006327 0.008741 0 0.7 0.7 0.7
vn 0 0 -1
v -0.00616899 0.008255 0 0.7 0.7 0.7
vn 0 0 -1
v -0.008306 0.010179 0 0.7 0.7 0.7
vn 0 0 -1
v -0.008562 0.010193 0 0.7 0.7 0.7
vn 0 0 -1
v -0.006116 0.007746 -0.05 0.7 0.7 0.7
vn 1 0.000415935 0
v -0.006116 0.007746 0 0.7 0.7 0.7
vn 0.999999 0.00162382 0
v -0.006116 -0.007746 0 0.7 0.7 0.7
vn 1 -0.000415935 0
v -0.006116 -0.007746 -0.05 0.7 0.7 0.7
vn 0.999999 -0.00162382 0
v -0.006129 -0.00800201 0 0.7 0.7 0.7
vn 0.996301 -0.0859328 0
v -0.006129 -0.00800201 -0.05 0.7 0.7 0.7
vn 0.992637 -0.121129 0
v -0.00616899 -0.008255 0 0.7 0.7 0.7
vn 0.981716 -0.190352 0
v -0.00616899 -0.008255 -0.05 0.7 0.7 0.7
vn 0.974495 -0.224408 0
v -0.006235 -0.008502 0 0.7 0.7 0.7
vn 0.956333 -0.292279 0
v -0.006235 -0.008502 -0.05 0.7 0.7 0.7
vn 0.945368 -0.326004 0
v -0.006327 -0.008741 0 0.7 0.7 0.7
vn 0.920558 -0.390606 0
v -0.006327 -0.008741 -0.05 0.7 0.7 0.7
vn 0.906823 -0.421511 0
v -0.00644299 -0.00897 0 0.7 0.7 0.7
vn 0.874897 -0.48431 0
v -0.00644299 -0.00897 -0.05 0.7 0.7 0.7
vn 0.856446 -0.516237 0
v -0.00658301 -0.009184 0 0.7 0.7 0.7
vn 0.817932 -0.575315 0
v -0.00658301 -0.009184 -0.05 0.7 0.7 0.7
vn 0.798124 -0.602494 0
v -0.006744 -0.009383 0 0.7 0.7 0.7
vn 0.75492 -0.655817 0
v -0.006744 -0.009383 -0.05 0.7 0.7 0.7
vn 0.731434 -0.681913 0
v -0.00692502 -0.009564 0 0.7 0.7 0.7
vn 0.681882 -0.731462 0
v -0.00692502 -0.009564 -0.05 0.7 0.7 0.7
vn 0.655815 -0.754921 0
v -0.00712401 -0.009725 0 0.7 0.7 0.7
vn 0.601887 -0.798581 0
v -0.00712401 -0.009725 -0.05 0.7 0.7 0.7
vn 0.5741 -0.818785 0
v -0.007339 -0.00986501 0 0.7 0.7 0.7
vn 0.515654 -0.856797 0
v -0.007339 -0.00986501 -0.05 0.7 0.7 0.7
vn 0.484845 -0.8746 0
v -0.00756702 -0.009981 0 0.7 0.7 0.7
vn 0.422498 -0.906364 0
v -0.00756702 -0.009981 -0.05 0.7 0.7 0.7
vn 0.391081 -0.920356 0
v -0.007806 -0.010073 0 0.7 0.7 0.7
vn 0.325998 -0.94537 0
v -0.007806 -0.010073 -0.05 0.7 0.7 0.7
vn 0.292249 -0.956342 0
v -0.008053 -0.010139 0 0.7 0.7 0.7
vn 0.22439 -0.9745 0
v -0.008053 -0.010139 -0.05 0.7 0.7 0.7
vn 0.19037 -0.981712 0
v -0.008306 -0.010179 0 0.7 0.7 0.7
vn 0.122448 -0.992475 0
v -0.008306 -0.010179 -0.05 0.7 0.7 0.7
vn 0.0885325 -0.996073 0
v -0.008306 0.010179 0 0.7 0.7 0.7
vn 0.0885325 0.996073 0
v -0.008306 0.010179 -0.05 0.7 0.7 0.7
vn 0.122448 0.992475 0
v -0.008053 0.010139 0 0.7 0.7 0.7
vn 0.19037 0.981712 0
v -0.008053 0.010139 -0.05 0.7 0.7 0.7
vn 0.22439 0.9745 0
v -0.007806 0.010073 0 0.7 0.7 0.7
vn 0.292249 0.956342 0
v -0.007806 0.010073 -0.05 0.7 0.7 0.7
vn 0.325998 0.94537 0
v -0.00756702 0.009981 0 0.7 0.7 0.7
vn 0.391097 0.920349 0
v -0.00756702 0.009981 -0.05 0.7 0.7 0.7
vn 0.42253 0.906349 0
v -0.007339 0.00986499 0 0.7 0.7 0.7
vn 0.484859 0.874592 0
v -0.007339 0.00986499 -0.05 0.7 0.7 0.7
vn 0.51564 0.856806 0
v -0.00712401 0.009725 0 0.7 0.7 0.7
vn 0.574074 0.818803 0
v -0.00712401 0.009725 -0.05 0.7 0.7 0.7
vn 0.601874 0.798591 0
v -0.00692502 0.009564 0 0.7 0.7 0.7
vn 0.655815 0.754921 0
v -0.00692502 0.009564 -0.05 0.7 0.7 0.7
vn 0.681882 0.731462 0
v -0.006744 0.009383 0 0.7 0.7 0.7
vn 0.731434 0.681913 0
v -0.006744 0.009383 -0.05 0.7 0.7 0.7
vn 0.75492 0.655817 0
v -0.00658301 0.009184 0 0.7 0.7 0.7
vn 0.798124 0.602494 0
v -0.00658301 0.009184 -0.05 0.7 0.7 0.7
vn 0.817932 0.575315 0
v -0.00644299 0.00897 0 0.7 0.7 0.7
vn 0.856446 0.516237 0
v -0.00644299 0.00897 -0.05 0.7 0.7 0.7
vn 0.874897 0.48431 0
v -0.006327 0.008741 0 0.7 0.7 0.7
vn 0.906823 0.421511 0
v -0.006327 0.008741 -0.05 0.7 0.7 0.7
vn 0.920558 0.390606 0
v -0.006235 0.008502 0 0.7 0.7 0.7
vn 0.945368 0.326004 0
v -0.006235 0.008502 -0.05 0.7 0.7 0.7
vn 0.956333 0.292279 0
v -0.00616899 0.008255 0 0.7 0.7 0.7
vn 0.974495 0.224408 0
v -0.00616899 0.008255 -0.05 0.7 0.7 0.7
vn 0.981716 0.190352 0
v -0.006129 0.00800201 0 0.7 0.7 0.7
vn 0.992637 0.121129 0
v -0.006129 0.00800201 -0.05 0.7 0.7 0.7
vn 0.996301 0.0859328 0
f 1//1 2//2 3//3
f 4//4 3//3 5//5
f 6//6 5//5 7//7
f 8//8 7//7 9//9
f 10//10 9//9 11//11
f 12//12 11//11 13//13
f 14//14 13//13 15//15
f 16//16 15//15 17//17
f 18//18 17//17 19//19
f 20//20 19//19 21//21
f 22//22 21//21 23//23
f 24//24 23//23 25//25
f 26//26 25//25 27//27
f 28//28 27//27 29//29
f 30//30 29//29 31//31
f 31//31 32//32 30//30
f 29//29 30//30 28//28
f 27//27 28//28 26//26
f 25//25 26//26 24//24
f 23//23 24//24 22//22
f 21//21 22//22 20//20
f 19//19 20//20 18//18
f 17//17 18//18 16//16
f 15//15 16//16 14//14
f 13//13 14//14 12//12
f 11//11 12//12 10//10
f 9//9 10//10 8//8
f 7//7 8//8 6//6
f 5//5 6//6 4//4
f 3//3 4//4 1//1
f 32//32 31//31 33//33
f 33//33 34//34 32//32
f 34//34 33//33 35//35
f 36//36 35//35 37//37
f 38//38 37//37 39//39
f 40//40 39//39 41//41
f 42//42 41//41 43//43
f 44//44 43//43 45//45
f 46//46 45//45 47//47
f 48//48 47//47 49//49
f 50//50 49//49 51//51
f 52//52 51//51 53//53
f 54//54 53//53 55//55
f 56//56 55//55 57//57
f 58//58 57//57 59//59
f 60//60 59//59 61//61
f 62//62 61//61 63//63
f 63//63 64//64 62//62
f 61//61 62//62 60//60
f 59//59 60//60 58//58
f 57//57 58//58 56//56
f 55//55 56//56 54//54
f 53//53 54//54 52//52
f 51//51 52//52 50//50
f 49//49 50//50 48//48
f 47//47 48//48 46//46
f 45//45 46//46 44//44
f 43//43 44//44 42//42
f 41//41 42//42 40//40
f 39//39 40//40 38//38
f 37//37 38//38 36//36
f 35//35 36//36 34//34
f 65//65 66//66 67//67
f 65//65 68//68 69//69
f 65//65 70//70 71//71
f 69//69 66//66 65//65
f 72//72 73//73 74//74
f 72//72 75//75 76//76
f 77//77 78//78 79//79
f 65//65 80//80 81//81
f 67//67 70//70 65//65
f 76//76 73//73 72//72
f 82//82 83//83 84//84
f 85//85 86//86 87//87
f 85//85 88//88 89//89
f 83//83 90//90 91//91
f 83//83 82//82 92//92
f 78//78 77//77 93//93
f 79//79 94//94 77//77
f 95//95 96//96 97//97
f 71//71 80//80 65//65
f 96//96 95//95 98//98
f 72//72 99//99 75//75
f 84//84 100//100 82//82
f 89//89 86//86 85//85
f 92//92 90//90 83//83
f 94//94 101//101 77//77
f 102//102 103//103 104//104
f 102//102 105//105 106//106
f 102//102 107//107 108//108
f 97//97 109//109 95//95
f 98//98 65//65 96//96
f 72//72 110//110 99//99
f 72//72 111//111 112//112
f 100//100 113//113 82//82
f 91//91 85//85 83//83
f 104//104 78//78 102//102
f 108//108 105//105 102//102
f 102//102 114//114 115//115
f 81//81 96//96 65//65
f 111//111 72//72 116//116
f 112//112 110//110 72//72
f 117//117 118//118 119//119
f 87//87 83//83 85//85
f 106//106 103//103 102//102
f 102//102 120//120 114//114
f 95//95 121//121 120//120
f 109//109 122//122 95//95
f 74//74 123//123 72//72
f 117//117 124//124 118//118
f 125//125 126//126 82//82
f 115//115 107//107 102//102
f 122//122 121//121 95//95
f 119//119 111//111 117//117
f 117//117 126//126 127//127
f 113//113 125//125 82//82
f 120//120 102//102 95//95
f 117//117 95//95 102//102
f 117//117 128//128 124//124
f 125//125 127//127 126//126
f 102//102 126//126 117//117
f 127//127 128//128 117//117
f 116//116 117//117 111//111
f 93//93 102//102 78//78
f 129//129 130//130 131//131
f 132//132 131//131 133//133
f 134//134 133//133 135//135
f 136//136 135//135 137//137
f 138//138 137//137 139//139
f 140//140 139//139 141//141
f 142//142 141//141 143//143
f 144//144 143//143 145//145
f 146//146 145//145 147//147
f 148//148 147//147 149//149
f 150//150 149//149 151//151
f 152//152 151//151 153//153
f 154//154 153//153 155//155
f 156//156 155//155 157//157
f 158//158 157//157 159//159
f 159//159 160//160 158//158
f 157//157 158//158 156//156
f 155//155 156//156 154//154
f 153//153 154//154 152//152
f 151//151 152//152 150//150
f 149//149 150//150 148//148
f 147//147 148//148 146//146
f 145//145 146//146 144//144
f 143//143 144//144 142//142
f 141//141 142//142 140//140
f 139//139 140//140 138//138
f 137//137 138//138 136//136
f 135//135 136//136 134//134
f 133//133 134//134 132//132
f 131//131 132//132 129//129
f 161//161 162//162 163//163
f 164//164 163//163 165//165
f 166//166 165//165 167//167
f 168//168 167//167 169//169
f 170//170 169//169 171//171
f 172//172 171//171 173//173
f 174//174 173//173 175//175
f 176//176 175//175 177//177
f 178//178 177//177 179//179
f 180//180 179//179 181//181
f 182//182 181//181 183//183
f 184//184 183//183 185//185
f 186//186 185//185 187//187
f 188//188 187//187 189//189
f 190//190 189//189 191//191
f 191//191 192//192 190//190
f 189//189 190//190 188//188
f 187//187 188//188 186//186
f 185//185 186//186 184//184
f 183//183 184//184 182//182
f 181//181 182//182 180//180
f 179//179 180//180 178//178
f 177//177 178//178 176//176
f 175//175 176//176 174//174
f 173//173 174//174 172//172
f 171//171 172//172 170//170
f 169//169 170//170 168//168
f 167//167 168//168 166//166
f 165//165 166//166 164//164
f 163//163 164//164 161//161
f 192//192 191//191 130//130
f 130//130 129//129 192//192
f 193//193 194//194 195//195
f 193//193 196//196 197//197
f 196//196 198//198 199//199
f 196//196 193//193 200//200
f 201//201 202//202 203//203
f 204//204 205//205 206//206
f 204//204 207//207 208//208
f 197//197 194//194 193//193
f 200//200 198//198 196//196
f 201//201 209//209 202//202
f 204//204 210//210 211//211
f 208//208 205//205 204//204
f 212//212 213//213 214//214
f 199//199 215//215 196//196
f 201//201 216//216 209//209
f 204//204 217//217 218//218
f 206//206 210//210 204//204
f 212//212 219//219 213//213
f 220//220 221//221 222//222
f 203//203 193//193 201//201
f 223//223 224//224 225//225
f 211//211 217//217 204//204
f 224//224 223//223 226//226
f 227//227 228//228 229//229
f 227//227 230//230 231//231
f 227//227 232//232 233//233
f 221//221 234//234 235//235
f 221//221 236//236 237//237
f 221//221 220//220 238//238
f 222//222 212//212 220//220
f 195//195 201//201 193//193
f 225//225 239//239 223//223
f 226//226 204//204 224//224
f 227//227 240//240 241//241
f 229//229 242//242 227//227
f 227//227 243//243 230//230
f 233//233 244//244 227//227
f 221//221 245//245 246//246
f 237//237 234//234 221//221
f 214//214 220//220 212//212
f 247//247 248//248 216//216
f 223//223 249//249 248//248
f 218//218 224//224 204//204
f 242//242 240//240 227//227
f 244//244 243//243 227//227
f 227//227 250//250 251//251
f 246//246 252//252 221//221
f 238//238 236//236 221//221
f 248//248 247//247 223//223
f 239//239 253//253 223//223
f 231//231 228//228 227//227
f 251//251 254//254 227//227
f 227//227 221//221 255//255
f 235//235 245//245 221//221
f 253//253 249//249 223//223
f 227//227 223//223 247//247
f 254//254 232//232 227//227
f 252//252 255//255 221//221
f 247//247 221//221 227//227
f 255//255 250//250 227//227
f 241//241 256//256 227//227
f 201//201 247//247 216//216
f 257//257 258//258 259//259
f 260//260 259//259 261//261
f 262//262 261//261 263//263
f 264//264 263//263 265//265
f 266//266 265//265 267//267
f 268//268 267//267 269//269
f 270//270 269//269 271//271
f 272//272 271//271 273//273
f 274//274 273//273 275//275
f 276//276 275//275 277//277
f 278//278 277//277 279//279
f 280//280 279//279 281//281
f 282//282 281//281 283//283
f 284//284 283//283 285//285
f 286//286 285//285 287//287
f 287//287 288//288 286//286
f 285//285 286//286 284//284
f 283//283 284//284 282//282
f 281//281 282//282 280//280
f 279//279 280//280 278//278
f 277//277 278//278 276//276
f 275//275 276//276 274//274
f 273//273 274//274 272//272
f 271//271 272//272 270//270
f 269//269 270//270 268//268
f 267//267 268//268 266//266
f 265//265 266//266 264//264
f 263//263 264//264 262//262
f 261//261 262//262 260//260
f 259//259 260//260 257//257
f 289//289 290//290 258//258
f 258//258 257//257 289//289
f 291//291 292//292 293//293
f 294//294 293//293 295//295
f 296//296 295//295 297//297
f 298//298 297//297 299//299
f 300//300 299//299 301//301
f 302//302 301//301 303//303
f 304//304 303//303 305//305
f 306//306 305//305 307//307
f 308//308 307//307 309//309
f 310//310 309//309 311//311
f 312//312 311//311 313//313
f 314//314 313//313 315//315
f 316//316 315//315 317//317
f 318//318 317//317 319//319
f 320//320 319//319 290//290
f 290//290 289//289 320//320
f 319//319 320//320 318//318
f 317//317 318//318 316//316
f 315//315 316//316 314//314
f 313//313 314//314 312//312
f 311//311 312//312 310//310
f 309//309 310//310 308//308
f 307//307 308//308 306//306
f 305//305 306//306 304//304
f 303//303 304//304 302//302
f 301//301 302//302 300//300
f 299//299 300//300 298//298
f 297//297 298//298 296//296
f 295//295 296//296 294//294
f 293//293 294//294 291//291
f 160//160 159//159 321//321
f 159//159 2//2 287//287
f 287//287 321//321 159//159
f 1//1 288//288 287//287
f 287//287 2//2 1//1
f 321//321 322//322 160//160
f 64//64 63//63 292//292
f 63//63 162//162 323//323
f 323//323 292//292 63//63
f 161//161 324//324 323//323
f 323//323 162//162 161//161
f 292//292 291//291 64//64
f 325//325 326//326 327//327
f 325//325 328//328 329//329
f 329//329 326//326 325//325
f 330//330 331//331 332//332
f 330//330 333//333 334//334
f 325//325 335//335 328//328
f 336//336 337//337 338//338
f 336//336 339//339 340//340
f 334//334 331//331 330//330
f 325//325 341//341 335//335
f 325//325 342//342 343//343
f 336//336 344//344 345//345
f 340//340 337//337 336//336
f 330//330 346//346 333//333
f 342//342 325//325 347//347
f 343//343 341//341 325//325
f 348//348 349//349 350//350
f 336//336 351//351 352//352
f 338//338 344//344 336//336
f 330//330 353//353 346//346
f 330//330 354//354 355//355
f 356//356 357//357 358//358
f 327//327 359//359 325//325
f 348//348 360//360 349//349
f 361//361 362//362 363//363
f 345//345 351//351 336//336
f 362//362 361//361 364//364
f 354//354 330//330 365//365
f 355//355 353//353 330//330
f 366//366 367//367 368//368
f 356//356 369//369 357//357
f 370//370 371//371 372//372
f 350//350 342//342 348//348
f 363//363 373//373 361//361
f 364//364 336//336 362//362
f 332//332 374//374 330//330
f 366//366 375//375 367//367
f 371//371 376//376 377//377
f 371//371 378//378 379//379
f 371//371 370//370 380//380
f 372//372 356//356 370//370
f 348//348 381//381 360//360
f 361//361 382//382 381//381
f 352//352 362//362 336//336
f 368//368 354//354 366//366
f 371//371 383//383 384//384
f 379//379 376//376 371//371
f 358//358 370//370 356//356
f 381//381 348//348 361//361
f 373//373 385//385 361//361
f 366//366 386//386 375//375
f 366//366 371//371 387//387
f 384//384 388//388 371//371
f 380//380 378//378 371//371
f 385//385 382//382 361//361
f 366//366 361//361 348//348
f 387//387 386//386 366//366
f 377//377 383//383 371//371
f 348//348 371//371 366//366
f 388//388 387//387 371//371
f 365//365 366//366 354//354
f 347//347 348//348 342//342
f 389//389 390//390 391//391
f 390//390 392//392 391//391
f 391//391 393//393 389//389
f 393//393 394//394 389//389
f 394//394 395//395 389//389
f 396//396 397//397 398//398
f 396//396 399//399 400//400
f 396//396 401//401 402//402
f 396//396 403//403 404//404
f 394//394 405//405 395//395
f 406//406 407//407 408//408
f 409//409 407//407 406//406
f 410//410 411//411 412//412
f 413//413 414//414 415//415
f 396//396 416//416 417//417
f 400//400 397//397 396//396
f 404//404 401//401 396//396
f 396//396 418//418 419//419
f 394//394 420//420 405//405
f 394//394 396//396 421//421
f 406//406 422//422 409//409
f 422//422 423//423 424//424
f 410//410 425//425 411//411
f 414//414 426//426 427//427
f 415//415 428//428 413//413
f 415//415 429//429 430//430
f 398//398 416//416 396//396
f 419//419 403//403 396//396
f 421//421 420//420 394//394
f 422//422 431//431 409//409
f 422//422 432//432 423//423
f 422//422 433//433 434//434
f 410//410 435//435 436//436
f 412//412 437//437 410//410
f 410//410 438//438 439//439
f 410//410 440//440 441//441
f 427//427 442//442 414//414
f 430//430 428//428 415//415
f 402//402 399//399 396//396
f 390//390 410//410 392//392
f 424//424 431//431 422//422
f 422//422 443//443 433//433
f 437//437 435//435 410//410
f 410//410 444//444 438//438
f 410//410 415//415 440//440
f 414//414 445//445 446//446
f 413//413 426//426 414//414
f 394//394 418//418 396//396
f 434//434 432//432 422//422
f 436//436 447//447 410//410
f 441//441 444//444 410//410
f 442//442 445//445 414//414
f 415//415 448//448 449//449
f 415//415 410//410 450//450
f 408//408 396//396 406//406
f 439//439 425//425 410//410
f 446//446 451//451 414//414
f 450//450 448//448 415//415
f 447//447 392//392 410//410
f 449//449 429//429 415//415
f 451//451 452//452 414//414
f 417//417 406//406 396//396
f 453//453 454//454 455//455
f 455//455 456//456 453//453
f 456//456 455//455 457//457
f 458//458 457//457 459//459
f 460//460 459//459 461//461
f 462//462 461//461 463//463
f 464//464 463//463 465//465
f 466//466 465//465 467//467
f 468//468 467//467 469//469
f 470//470 469//469 471//471
f 472//472 471//471 473//473
f 474//474 473//473 475//475
f 476//476 475//475 477//477
f 478//478 477//477 479//479
f 480//480 479//479 481//481
f 482//482 481//481 483//483
f 484//484 483//483 323//323
f 323//323 324//324 484//484
f 483//483 484//484 482//482
f 481//481 482//482 480//480
f 479//479 480//480 478//478
f 477//477 478//478 476//476
f 475//475 476//476 474//474
f 473//473 474//474 472//472
f 471//471 472//472 470//470
f 469//469 470//470 468//468
f 467//467 468//468 466//466
f 465//465 466//466 464//464
f 463//463 464//464 462//462
f 461//461 462//462 460//460
f 459//459 460//460 458//458
f 457//457 458//458 456//456
f 322//322 321//321 485//485
f 486//486 485//485 487//487
f 488//488 487//487 489//489
f 490//490 489//489 491//491
f 492//492 491//491 493//493
f 494//494 493//493 495//495
f 496//496 495//495 497//497
f 498//498 497//497 499//499
f 500//500 499//499 501//501
f 502//502 501//501 503//503
f 504//504 503//503 505//505
f 506//506 505//505 507//507
f 508//508 507//507 509//509
f 510//510 509//509 511//511
f 512//512 511//511 454//454
f 454//454 453//453 512//512
f 511//511 512//512 510//510
f 509//509 510//510 508//508
f 507//507 508//508 506//506
f 505//505 506//506 504//504
f 503//503 504//504 502//502
f 501//501 502//502 500//500
f 499//499 500//500 498//498
f 497//497 498//498 496//496
f 495//495 496//496 494//494
f 493//493 494//494 492//492
f 491//491 492//492 490//490
f 489//489 490//490 488//488
f 487//487 488//488 486//486
f 485//485 486//486 322//322
