# OBJ generated by ONSHAPE BY PTC INC, 1.192 Units = meters
mtllib peg_hex_2.mtl
g Part 1
v 0.02 8.67362e-18 0.05 
v 0.02 8.67362e-18 -0.05 
v 0.01 0.0173205 -0.05 
v 0.01 0.0173205 0.05 
v -0.01 0.0173205 -0.05 
v -0.01 0.0173205 0.05 
v -0.02 1.73472e-17 -0.05 
v -0.02 1.73472e-17 0.05 
v -0.01 -0.0173205 0.05 
v 0.01 -0.0173205 0.05 
v 0.01 -0.0173205 -0.05 
v -0.01 -0.0173205 -0.05 
vn 0.866025 0.5 0 
vn 0 1 0 
vn -0.866025 0.5 0 
vn 0 0 1 
vn 0 0 -1 
vn -0.866025 -0.5 0 
vn -3.46945e-16 -1 0 
vn 0.866025 -0.5 0 
usemtl 0.541176_0.682353_0.839216_0.000000_0.000000
o mesh0
f 1//1 2//1 3//1 
f 3//1 4//1 1//1 
o mesh1
f 4//2 3//2 5//2 
f 5//2 6//2 4//2 
o mesh2
f 6//3 5//3 7//3 
f 7//3 8//3 6//3 
o mesh3
f 1//4 8//4 9//4 
f 8//4 1//4 4//4 
f 4//4 6//4 8//4 
f 9//4 10//4 1//4 
o mesh4
f 7//5 2//5 11//5 
f 2//5 7//5 5//5 
f 5//5 3//5 2//5 
f 11//5 12//5 7//5 
o mesh5
f 8//6 7//6 12//6 
f 12//6 9//6 8//6 
o mesh6
f 9//7 12//7 11//7 
f 11//7 10//7 9//7 
o mesh7
f 10//8 11//8 2//8 
f 2//8 1//8 10//8 
