# OBJ generated by ONSHAPE BY PTC INC, 1.192 Units = meters
mtllib peg_pyramid.mtl
g Part 1
v 5.4082e-17 -5.20417e-18 -0.04 
v 0.02 -0.02 -0.025 
v -0.02 -0.02 -0.025 
v 0.02 0.02 -0.025 
v -0.02 0.02 -0.025 
v 0.02 -0.02 0.04 
v 0.02 0.02 0.04 
v -0.02 0.02 0.04 
v -0.02 -0.02 0.04 
vn -2.02055e-16 -0.6 -0.8 
vn 0.6 0 -0.8 
vn 6.11166e-18 0.6 -0.8 
vn 1 -1.73472e-16 -1.22465e-16 
vn 0 1 0 
vn -1 1.73472e-16 1.22465e-16 
vn 0 -1 0 
vn 1.22465e-16 0 1 
vn -0.6 0 -0.8 
usemtl 0.615686_0.811765_0.929412_0.000000_0.000000
o mesh0
f 1//1 2//1 3//1 
o mesh1
f 1//2 4//2 2//2 
o mesh2
f 1//3 5//3 4//3 
o mesh3
f 6//4 2//4 4//4 
f 4//4 7//4 6//4 
o mesh4
f 7//5 4//5 5//5 
f 5//5 8//5 7//5 
o mesh5
f 8//6 5//6 3//6 
f 3//6 9//6 8//6 
o mesh6
f 6//7 9//7 3//7 
f 3//7 2//7 6//7 
o mesh7
f 9//8 6//8 7//8 
f 7//8 8//8 9//8 
o mesh8
f 3//9 5//9 1//9 
