# OBJ generated by ONSHAPE BY PTC INC, 1.192 Units = meters
mtllib rectangle.mtl
g Part 1
v 0.025 0.0125 0.04 
v 0.025 0.0125 -0.04 
v 0.0225 0.015 -0.04 
v 0.0225 0.015 0.04 
v -0.0225 0.015 -0.04 
v -0.0225 0.015 0.04 
v -0.025 0.0125 -0.04 
v -0.025 0.0125 0.04 
v -0.025 -0.0125 -0.04 
v -0.025 -0.0125 0.04 
v -0.0225 -0.015 -0.04 
v -0.0225 -0.015 0.04 
v 0.0225 -0.015 0.04 
v 0.025 -0.0125 0.04 
v 0.0225 -0.015 -0.04 
v 0.025 -0.0125 -0.04 
vn 0.707107 0.707107 0 
vn -1.54198e-16 1 0 
vn -0.707107 0.707107 0 
vn -1 -1.38778e-16 0 
vn -0.707107 -0.707107 0 
vn 0 0 1 
vn 0 0 -1 
vn 1.15648e-16 -1 0 
vn 0.707107 -0.707107 0 
vn 1 1.38778e-16 0 
usemtl 0.615686_0.811765_0.929412_0.000000_0.000000
o mesh0
f 1//1 2//1 3//1 
f 3//1 4//1 1//1 
o mesh1
f 4//2 3//2 5//2 
f 5//2 6//2 4//2 
o mesh2
f 6//3 5//3 7//3 
f 7//3 8//3 6//3 
o mesh3
f 8//4 7//4 9//4 
f 9//4 10//4 8//4 
o mesh4
f 10//5 9//5 11//5 
f 11//5 12//5 10//5 
o mesh5
f 12//6 6//6 8//6 
f 4//6 6//6 12//6 
f 12//6 13//6 4//6 
f 4//6 13//6 14//6 
f 14//6 1//6 4//6 
f 8//6 10//6 12//6 
o mesh6
f 5//7 11//7 9//7 
f 15//7 11//7 5//7 
f 5//7 3//7 15//7 
f 15//7 3//7 2//7 
f 2//7 16//7 15//7 
f 9//7 7//7 5//7 
o mesh7
f 12//8 11//8 15//8 
f 15//8 13//8 12//8 
o mesh8
f 13//9 15//9 16//9 
f 16//9 14//9 13//9 
o mesh9
f 14//10 16//10 2//10 
f 2//10 1//10 14//10 
