# OBJ generated by ONSHAPE BY PTC INC, 1.192 Units = meters
mtllib peg_mountain.mtl
g Part 1
v 0.02 -0.02 0.04 
v -0.02 -0.02 0.04 
v -0.02 -0.02 -0.025 
v 0.02 -0.02 -0.025 
v 0.02 0.02 0.04 
v -0.02 0.02 0.04 
v 0.02 0.02 -0.025 
v 0.02 4.89859e-18 -0.04 
v -0.02 0.02 -0.025 
v -0.02 1.18375e-17 -0.04 
vn 0 -1 -1.22465e-16 
vn 0 -1.22465e-16 1 
vn 1 -1.73472e-16 -2.12442e-32 
vn -1 1.73472e-16 2.12442e-32 
vn 0 1 1.22465e-16 
vn 1.04083e-16 0.6 -0.8 
vn -1.04083e-16 -0.6 -0.8 
usemtl 0.615686_0.811765_0.929412_0.000000_0.000000
o mesh0
f 1//1 2//1 3//1 
f 3//1 4//1 1//1 
o mesh1
f 5//2 6//2 2//2 
f 2//2 1//2 5//2 
o mesh2
f 1//3 4//3 7//3 
f 4//3 8//3 7//3 
f 7//3 5//3 1//3 
o mesh3
f 6//4 9//4 3//4 
f 3//4 2//4 6//4 
f 9//4 10//4 3//4 
o mesh4
f 5//5 7//5 9//5 
f 9//5 6//5 5//5 
o mesh5
f 7//6 8//6 10//6 
f 10//6 9//6 7//6 
o mesh6
f 3//7 10//7 8//7 
f 8//7 4//7 3//7 
