# OBJ generated by ONSHAPE BY PTC INC, 1.192 Units = meters
mtllib socket_mountain.mtl
g Part 2
v 0.02 0.02 -0.025 
v -0.02 0.02 -0.025 
v -0.02 1.18375e-17 -0.04 
v 0.02 4.89859e-18 -0.04 
v -0.02 -0.02 -0.025 
v 0.02 -0.02 -0.025 
v -0.02 -0.02 -0.055 
v -0.02 0.02 -0.055 
v 0.02 -0.02 -0.055 
v 0.02 0.02 -0.055 
vn -1.04083e-16 -0.6 0.8 
vn 1.04083e-16 0.6 0.8 
vn -1 1.73472e-16 2.12442e-32 
vn 1 -1.73472e-16 -2.12442e-32 
vn 0 1 1.22465e-16 
vn 0 1.22465e-16 -1 
vn 0 -1 -1.22465e-16 
usemtl 0.647059_0.647059_0.647059_0.000000_0.000000
o mesh0
f 1//1 2//1 3//1 
f 3//1 4//1 1//1 
o mesh1
f 5//2 6//2 4//2 
f 4//2 3//2 5//2 
o mesh2
f 7//3 5//3 3//3 
f 3//3 8//3 7//3 
f 3//3 2//3 8//3 
o mesh3
f 9//4 10//4 4//4 
f 10//4 1//4 4//4 
f 4//4 6//4 9//4 
o mesh4
f 10//5 8//5 2//5 
f 2//5 1//5 10//5 
o mesh5
f 10//6 9//6 7//6 
f 7//6 8//6 10//6 
o mesh6
f 9//7 6//7 5//7 
f 5//7 7//7 9//7 
