# OBJ generated by ONSHAPE BY PTC INC, 1.192 Units = meters
mtllib socket_pyramid.mtl
g Part 2
v 5.4082e-17 -5.20417e-18 -0.04 
v -0.02 0.02 -0.025 
v -0.02 -0.02 -0.025 
v 0.02 -0.02 -0.025 
v 0.02 0.02 -0.025 
v -0.02 0.02 -0.0469 
v -0.02 -0.02 -0.0469 
v 0.02 0.02 -0.0469 
v 0.02 -0.02 -0.0469 
vn 0.6 0 0.8 
vn 2.02055e-16 0.6 0.8 
vn -6.11166e-18 -0.6 0.8 
vn -1 1.73472e-16 1.22465e-16 
vn -1.22465e-16 0 -1 
vn 1 0 -1.22465e-16 
vn 1.73472e-16 1 -2.12442e-32 
vn -1.73472e-16 -1 2.12442e-32 
vn -0.6 0 0.8 
usemtl 0.647059_0.647059_0.647059_0.000000_0.000000
o mesh0
f 1//1 2//1 3//1 
o mesh1
f 3//2 4//2 1//2 
o mesh2
f 5//3 2//3 1//3 
o mesh3
f 6//4 7//4 3//4 
f 3//4 2//4 6//4 
o mesh4
f 7//5 6//5 8//5 
f 8//5 9//5 7//5 
o mesh5
f 8//6 5//6 4//6 
f 4//6 9//6 8//6 
o mesh6
f 6//7 2//7 5//7 
f 5//7 8//7 6//7 
o mesh7
f 9//8 4//8 3//8 
f 3//8 7//8 9//8 
o mesh8
f 4//9 5//9 1//9 
